<svg width="72" height="72" viewBox="0 0 72 72" fill="none" xmlns="http://www.w3.org/2000/svg">
<g filter="url(#filter0_ddiii_1_12608)">
<g clip-path="url(#clip0_1_12608)">
<rect x="4" width="64" height="64" rx="16" fill="#3538CD"/>
<rect width="64" height="64" transform="translate(4)" fill="url(#paint0_linear_1_12608)"/>
<g filter="url(#filter1_d_1_12608)">
<path opacity="0.5" d="M36.0001 12C24.9543 12 16 20.9543 16 32.0001C16 43.0458 24.9543 52.0002 36.0001 52.0002C45.9101 52.0002 54.1367 44.7925 55.7236 35.3334H55.5801C54.0999 41.0842 48.8796 45.3335 42.6668 45.3335C35.303 45.3335 29.3334 39.3639 29.3334 32.0001C29.3334 24.6362 35.303 18.6667 42.6668 18.6667C48.8796 18.6667 54.0999 22.9159 55.5801 28.6667H55.7236C54.1367 19.2076 45.9101 12 36.0001 12Z" fill="url(#paint1_linear_1_12608)"/>
<path d="M16 32.0001C16 20.9543 24.9543 12 36.0001 12C45.9101 12 54.1367 19.2076 55.7236 28.6667H42.2467C40.7666 22.9159 35.5462 18.6667 29.3334 18.6667C21.9696 18.6667 16 24.6363 16 32.0001Z" fill="url(#paint2_linear_1_12608)"/>
<path d="M16 32.0003C16 43.046 24.9543 52.0004 36.0001 52.0004C45.9101 52.0004 54.1367 44.7927 55.7236 35.3336H42.2467C40.7666 41.0844 35.5462 45.3337 29.3334 45.3337C21.9696 45.3337 16 39.3641 16 32.0003Z" fill="url(#paint3_linear_1_12608)"/>
</g>
</g>
<rect x="5.33333" y="1.33333" width="61.3333" height="61.3333" rx="14.6667" stroke="url(#paint4_linear_1_12608)" stroke-width="2.66667"/>
</g>
<defs>
<filter id="filter0_ddiii_1_12608" x="-1.19209e-07" y="-4" width="72" height="76" filterUnits="userSpaceOnUse" color-interpolation-filters="sRGB">
<feFlood flood-opacity="0" result="BackgroundImageFix"/>
<feColorMatrix in="SourceAlpha" type="matrix" values="0 0 0 0 0 0 0 0 0 0 0 0 0 0 0 0 0 0 127 0" result="hardAlpha"/>
<feOffset dy="1.33333"/>
<feGaussianBlur stdDeviation="0.666667"/>
<feComposite in2="hardAlpha" operator="out"/>
<feColorMatrix type="matrix" values="0 0 0 0 0.162923 0 0 0 0 0.162923 0 0 0 0 0.162923 0 0 0 0.08 0"/>
<feBlend mode="normal" in2="BackgroundImageFix" result="effect1_dropShadow_1_12608"/>
<feColorMatrix in="SourceAlpha" type="matrix" values="0 0 0 0 0 0 0 0 0 0 0 0 0 0 0 0 0 0 127 0" result="hardAlpha"/>
<feMorphology radius="1.33333" operator="erode" in="SourceAlpha" result="effect2_dropShadow_1_12608"/>
<feOffset dy="4"/>
<feGaussianBlur stdDeviation="2.66667"/>
<feComposite in2="hardAlpha" operator="out"/>
<feColorMatrix type="matrix" values="0 0 0 0 0.164706 0 0 0 0 0.164706 0 0 0 0 0.164706 0 0 0 0.14 0"/>
<feBlend mode="normal" in2="effect1_dropShadow_1_12608" result="effect2_dropShadow_1_12608"/>
<feBlend mode="normal" in="SourceGraphic" in2="effect2_dropShadow_1_12608" result="shape"/>
<feColorMatrix in="SourceAlpha" type="matrix" values="0 0 0 0 0 0 0 0 0 0 0 0 0 0 0 0 0 0 127 0" result="hardAlpha"/>
<feOffset dy="-4"/>
<feGaussianBlur stdDeviation="2"/>
<feComposite in2="hardAlpha" operator="arithmetic" k2="-1" k3="1"/>
<feColorMatrix type="matrix" values="0 0 0 0 0 0 0 0 0 0 0 0 0 0 0 0 0 0 0.1 0"/>
<feBlend mode="normal" in2="shape" result="effect3_innerShadow_1_12608"/>
<feColorMatrix in="SourceAlpha" type="matrix" values="0 0 0 0 0 0 0 0 0 0 0 0 0 0 0 0 0 0 127 0" result="hardAlpha"/>
<feOffset dy="4"/>
<feGaussianBlur stdDeviation="2"/>
<feComposite in2="hardAlpha" operator="arithmetic" k2="-1" k3="1"/>
<feColorMatrix type="matrix" values="0 0 0 0 1 0 0 0 0 1 0 0 0 0 1 0 0 0 0.1 0"/>
<feBlend mode="normal" in2="effect3_innerShadow_1_12608" result="effect4_innerShadow_1_12608"/>
<feColorMatrix in="SourceAlpha" type="matrix" values="0 0 0 0 0 0 0 0 0 0 0 0 0 0 0 0 0 0 127 0" result="hardAlpha"/>
<feMorphology radius="1.33333" operator="erode" in="SourceAlpha" result="effect5_innerShadow_1_12608"/>
<feOffset/>
<feComposite in2="hardAlpha" operator="arithmetic" k2="-1" k3="1"/>
<feColorMatrix type="matrix" values="0 0 0 0 0.0627451 0 0 0 0 0.0941176 0 0 0 0 0.156863 0 0 0 0.24 0"/>
<feBlend mode="normal" in2="effect4_innerShadow_1_12608" result="effect5_innerShadow_1_12608"/>
</filter>
<filter id="filter1_d_1_12608" x="12" y="7" width="48" height="56" filterUnits="userSpaceOnUse" color-interpolation-filters="sRGB">
<feFlood flood-opacity="0" result="BackgroundImageFix"/>
<feColorMatrix in="SourceAlpha" type="matrix" values="0 0 0 0 0 0 0 0 0 0 0 0 0 0 0 0 0 0 127 0" result="hardAlpha"/>
<feMorphology radius="2" operator="erode" in="SourceAlpha" result="effect1_dropShadow_1_12608"/>
<feOffset dy="3"/>
<feGaussianBlur stdDeviation="3"/>
<feComposite in2="hardAlpha" operator="out"/>
<feColorMatrix type="matrix" values="0 0 0 0 0.141176 0 0 0 0 0.141176 0 0 0 0 0.141176 0 0 0 0.1 0"/>
<feBlend mode="normal" in2="BackgroundImageFix" result="effect1_dropShadow_1_12608"/>
<feBlend mode="normal" in="SourceGraphic" in2="effect1_dropShadow_1_12608" result="shape"/>
</filter>
<linearGradient id="paint0_linear_1_12608" x1="32" y1="7.94729e-07" x2="34.6667" y2="64" gradientUnits="userSpaceOnUse">
<stop stop-color="white" stop-opacity="0"/>
<stop offset="1" stop-color="white" stop-opacity="0.12"/>
</linearGradient>
<linearGradient id="paint1_linear_1_12608" x1="35.8618" y1="12" x2="35.8618" y2="52.0002" gradientUnits="userSpaceOnUse">
<stop stop-color="white" stop-opacity="0.8"/>
<stop offset="1" stop-color="white" stop-opacity="0.5"/>
</linearGradient>
<linearGradient id="paint2_linear_1_12608" x1="35.8618" y1="12" x2="35.8618" y2="32.0001" gradientUnits="userSpaceOnUse">
<stop stop-color="white" stop-opacity="0.8"/>
<stop offset="1" stop-color="white" stop-opacity="0.5"/>
</linearGradient>
<linearGradient id="paint3_linear_1_12608" x1="35.8618" y1="52.0004" x2="35.8618" y2="32.0003" gradientUnits="userSpaceOnUse">
<stop stop-color="white" stop-opacity="0.8"/>
<stop offset="1" stop-color="white" stop-opacity="0.5"/>
</linearGradient>
<linearGradient id="paint4_linear_1_12608" x1="36" y1="0" x2="36" y2="64" gradientUnits="userSpaceOnUse">
<stop stop-color="white" stop-opacity="0.12"/>
<stop offset="1" stop-color="white" stop-opacity="0"/>
</linearGradient>
<clipPath id="clip0_1_12608">
<rect x="4" width="64" height="64" rx="16" fill="white"/>
</clipPath>
</defs>
</svg>
