<svg width="262" height="54" viewBox="0 0 262 54" fill="none" xmlns="http://www.w3.org/2000/svg">
<rect width="105.346" height="53.5354" rx="26.7677" fill="white"/>
<path d="M22.2861 37.449L15.0766 13.8364H19.012L24.7333 32.5214L30.4215 13.8364H35.3821L41.1034 32.5214L46.7916 13.8364H50.727L43.5176 37.449H38.6561L32.9018 18.5986L27.1475 37.449H22.2861ZM69.2255 29.5781H54.9389C55.3357 32.1577 57.2869 33.8112 60.0649 33.8112C62.2806 33.8112 63.9672 32.786 64.7609 31.0663H68.994C68.068 35.1671 64.7279 37.7797 60.0649 37.7797C54.5751 37.7797 50.9042 34.1088 50.9042 28.6191C50.9042 23.0962 54.5751 19.4254 60.0649 19.4254C65.5877 19.4254 69.2586 23.0962 69.2586 28.6191C69.2586 28.9498 69.2586 29.2474 69.2255 29.5781ZM55.3357 26.271H64.8271C64.0334 24.4852 62.3468 23.3939 60.0649 23.3939C57.8161 23.3939 56.0964 24.4852 55.3357 26.271ZM71.4159 28.6191V13.8364H75.3844V20.8143C76.8065 19.9214 78.5923 19.4254 80.6096 19.4254C86.0994 19.4254 89.7703 23.0962 89.7703 28.6191C89.7703 34.1088 86.0994 37.7797 80.6096 37.7797C75.0868 37.7797 71.4159 34.1088 71.4159 28.6191ZM75.3844 28.6191C75.3844 31.7277 77.4679 33.8112 80.6096 33.8112C83.7183 33.8112 85.8018 31.7277 85.8018 28.6191C85.8018 25.4773 83.7183 23.3939 80.6096 23.3939C77.4679 23.3939 75.3844 25.4773 75.3844 28.6191Z" fill="#087CFC"/>
<rect x="110.346" width="151.346" height="53.5354" rx="26.7677" fill="url(#paint0_linear_1_2895)"/>
<path d="M126.11 37.4488V13.8362H134.708C139.437 13.8362 142.579 16.978 142.579 21.8724C142.579 24.9811 141.223 27.4283 138.941 28.7181L142.579 37.4488H138.511L135.303 29.7102C135.27 29.7102 135.204 29.7102 135.171 29.7102L134.873 29.7433C134.807 29.7433 134.774 29.7433 134.708 29.7433H130.078V37.4488H126.11ZM134.344 26.0063C136.825 26.0063 138.511 24.3197 138.511 21.8394C138.511 19.2598 136.825 17.5732 134.344 17.5732H130.078V26.0063H134.344ZM162.735 29.578H148.448C148.845 32.1575 150.796 33.811 153.574 33.811C155.79 33.811 157.477 32.7858 158.27 31.0661H162.503C161.577 35.1669 158.237 37.7795 153.574 37.7795C148.085 37.7795 144.414 34.1087 144.414 28.6189C144.414 23.0961 148.085 19.4252 153.574 19.4252C159.097 19.4252 162.768 23.0961 162.768 28.6189C162.768 28.9496 162.768 29.2472 162.735 29.578ZM148.845 26.2709H158.336C157.543 24.485 155.856 23.3937 153.574 23.3937C151.325 23.3937 149.606 24.485 148.845 26.2709ZM178.617 24.8819H174.648C174.648 24.022 173.623 23.3937 171.738 23.3937C170.117 23.3937 169.059 23.8567 169.059 24.5512C169.059 26.7008 179.113 25.8079 179.113 32.1244C179.113 35.4976 176.203 37.7795 171.969 37.7795C167.637 37.7795 164.76 35.3984 164.76 31.8598H168.728C168.728 33.1165 169.886 33.811 171.903 33.811C173.888 33.811 175.144 33.1496 175.144 32.1906C175.144 29.4457 165.091 30.7024 165.091 24.6835C165.091 21.5417 167.803 19.4252 171.804 19.4252C175.839 19.4252 178.617 21.6079 178.617 24.8819ZM192.676 19.789H196.645V30.1732C196.645 34.737 193.602 37.7795 189.039 37.7795C184.31 37.7795 181.267 34.737 181.267 30.1732V19.789H185.236V29.578C185.236 32.1906 186.724 33.7449 188.973 33.7449C191.188 33.7449 192.676 32.1906 192.676 29.578V19.789ZM210.375 37.4488V27.6268C210.375 25.0142 208.886 23.4598 206.671 23.4598C204.422 23.4598 202.934 25.0142 202.934 27.6268V37.4488H198.965V27.0315C198.965 22.4677 202.008 19.4252 206.737 19.4252C209.085 19.4252 211.036 20.252 212.359 21.6409C213.715 20.252 215.699 19.4252 218.146 19.4252C222.71 19.4252 225.752 22.4677 225.752 27.0315V37.4488H221.784V27.6268C221.784 25.0142 220.296 23.4598 218.08 23.4598C215.831 23.4598 214.343 25.0142 214.343 27.6268V37.4488H210.375ZM246.219 29.578H231.933C232.33 32.1575 234.281 33.811 237.059 33.811C239.275 33.811 240.961 32.7858 241.755 31.0661H245.988C245.062 35.1669 241.722 37.7795 237.059 37.7795C231.569 37.7795 227.898 34.1087 227.898 28.6189C227.898 23.0961 231.569 19.4252 237.059 19.4252C242.582 19.4252 246.253 23.0961 246.253 28.6189C246.253 28.9496 246.253 29.2472 246.219 29.578ZM232.33 26.2709H241.821C241.027 24.485 239.341 23.3937 237.059 23.3937C234.81 23.3937 233.09 24.485 232.33 26.2709Z" fill="url(#paint1_linear_1_2895)"/>
<defs>
<linearGradient id="paint0_linear_1_2895" x1="110.346" y1="26.7677" x2="261.693" y2="26.7677" gradientUnits="userSpaceOnUse">
<stop stop-color="#087CFC"/>
<stop offset="1" stop-color="#054A96"/>
</linearGradient>
<linearGradient id="paint1_linear_1_2895" x1="124.52" y1="27.9488" x2="247.52" y2="27.9488" gradientUnits="userSpaceOnUse">
<stop stop-color="white"/>
<stop offset="1" stop-color="white"/>
</linearGradient>
</defs>
</svg>
